<?xml version="1.0" encoding="UTF-8"?>
<svg xmlns="http://www.w3.org/2000/svg" xmlns:xlink="http://www.w3.org/1999/xlink" width="512px" height="512px" viewBox="0 0 512 512" version="1.1">
<defs>
<linearGradient id="linear0" gradientUnits="userSpaceOnUse" x1="0" y1="0" x2="1" y2="0" gradientTransform="matrix(362.038672,362.038672,-362.038672,362.038672,256,-106.038672)">
<stop offset="0" style="stop-color:rgb(11.372549%,79.607843%,91.764706%);stop-opacity:1;"/>
<stop offset="1" style="stop-color:rgb(13.333333%,29.411765%,27.058824%);stop-opacity:1;"/>
</linearGradient>
</defs>
<g id="surface1">
<rect x="0" y="0" width="512" height="512" style="fill:url(#linear0);stroke:none;"/>
<path style="fill-rule:nonzero;fill:rgb(0%,0%,0%);fill-opacity:1;stroke-width:0.2;stroke-linecap:butt;stroke-linejoin:miter;stroke:rgb(14.117648%,78.431374%,8.627451%);stroke-opacity:1;stroke-miterlimit:4;" d="M 9.569994 -7.300018 L 10.71992 -2.949979 L 13.309942 -14.220006 L 15.699945 -14.220006 L 12.270062 -0.0000681066 L 9.369976 -0.0000681066 L 7.790083 -4.739928 L 5.480015 -4.739928 L 5.480015 -7.300018 Z M 26.61994 -2.540085 L 26.61994 -0.0000681066 L 16.700037 -0.0000681066 L 16.700037 -2.150085 L 21.269988 -6.949986 C 22.396615 -8.236663 22.959928 -9.256649 22.959928 -10.009944 C 22.959928 -10.623261 22.826582 -11.089971 22.56007 -11.410072 C 22.293379 -11.723362 21.906606 -11.880007 21.399929 -11.880007 C 20.893251 -11.880007 20.486583 -11.669952 20.179925 -11.250021 C 19.866634 -10.82328 19.709989 -10.290077 19.709989 -9.650054 L 16.410046 -9.650054 C 16.410046 -10.523252 16.626732 -11.329957 17.059926 -12.069988 C 17.493299 -12.803389 18.099985 -13.379965 18.879985 -13.800075 C 19.653353 -14.213374 20.516694 -14.420024 21.470007 -14.420024 C 23.009932 -14.420024 24.193374 -14.066587 25.019973 -13.360071 C 25.853382 -12.646744 26.270087 -11.626579 26.270087 -10.299934 C 26.270087 -9.740026 26.166672 -9.196608 25.960023 -8.670036 C 25.746742 -8.136654 25.423415 -7.579972 24.990042 -6.999991 C 24.550037 -6.413378 23.839937 -5.633379 22.859919 -4.659992 L 21.030002 -2.540085 Z M 26.61994 -2.540085 " transform="matrix(21.794883,0,0,21.794883,-93.807373,413.146016)"/>
</g>
</svg>
