<?xml version="1.0" encoding="UTF-8"?>
<svg xmlns="http://www.w3.org/2000/svg" xmlns:xlink="http://www.w3.org/1999/xlink" width="192px" height="192px" viewBox="0 0 192 192" version="1.1">
<defs>
<linearGradient id="linear0" gradientUnits="userSpaceOnUse" x1="0" y1="0" x2="1" y2="0" gradientTransform="matrix(135.764502,135.764502,-135.764502,135.764502,96,-39.764502)">
<stop offset="0" style="stop-color:rgb(11.372549%,79.607843%,91.764706%);stop-opacity:1;"/>
<stop offset="1" style="stop-color:rgb(13.333333%,29.411765%,27.058824%);stop-opacity:1;"/>
</linearGradient>
</defs>
<g id="surface1">
<rect x="0" y="0" width="192" height="192" style="fill:url(#linear0);stroke:none;"/>
<path style="fill-rule:nonzero;fill:rgb(0%,0%,0%);fill-opacity:1;stroke-width:0.2;stroke-linecap:butt;stroke-linejoin:miter;stroke:rgb(14.117648%,78.431374%,8.627451%);stroke-opacity:1;stroke-miterlimit:4;" d="M 9.570054 -7.300078 L 10.71998 -2.94986 L 13.309942 -14.220185 L 15.700124 -14.220185 L 12.269942 -0.00000836397 L 9.369797 -0.00000836397 L 7.790202 -4.740227 L 5.479836 -4.740227 L 5.479836 -7.300078 Z M 26.620119 -2.539786 L 26.620119 -0.00000836397 L 16.699977 -0.00000836397 L 16.699977 -2.149787 L 21.270048 -6.950225 C 22.396555 -8.236842 22.960047 -9.256768 22.960047 -10.010003 C 22.960047 -10.623202 22.826702 -11.09015 22.560011 -11.409892 C 22.29332 -11.723422 21.906665 -11.880186 21.400048 -11.880186 C 20.893431 -11.880186 20.486703 -11.669892 20.179865 -11.249782 C 19.866814 -10.823459 19.710049 -10.290077 19.710049 -9.650114 L 16.409867 -9.650114 C 16.409867 -10.523312 16.626852 -11.330076 17.059866 -12.069929 C 17.493359 -12.803568 18.099866 -13.379965 18.879866 -13.800075 C 19.653174 -14.213494 20.516813 -14.419964 21.469827 -14.419964 C 23.010231 -14.419964 24.193135 -14.066766 25.019973 -13.359891 C 25.853502 -12.646803 26.269788 -11.626877 26.269788 -10.300113 C 26.269788 -9.739967 26.166553 -9.196548 25.960083 -8.669857 C 25.746443 -8.136475 25.423355 -7.580152 24.989862 -6.999931 C 24.550157 -6.413498 23.839937 -5.633498 22.860158 -4.659932 L 21.030122 -2.539786 Z M 26.620119 -2.539786 " transform="matrix(8.173081,0,0,8.173081,-35.177765,154.929756)"/>
</g>
</svg>
